<?xml version="1.0" encoding="utf-8"?>
<!-- Generator: Adobe Illustrator 16.0.0, SVG Export Plug-In . SVG Version: 6.00 Build 0)  -->
<!DOCTYPE svg PUBLIC "-//W3C//DTD SVG 1.1//EN" "http://www.w3.org/Graphics/SVG/1.1/DTD/svg11.dtd">
<svg version="1.1" id="レイヤー_1" xmlns="http://www.w3.org/2000/svg" xmlns:xlink="http://www.w3.org/1999/xlink" x="0px"
	 y="0px" width="217.5px" height="35px" viewBox="0 0 217.5 35" enable-background="new 0 0 217.5 35" xml:space="preserve">
<g>
	<g>
		<g>
			<polygon fill="#1E95D4" points="16.049,3.624 16.049,4.952 23.741,4.952 23.741,24.181 27.235,24.181 27.235,4.952 34.647,4.952 
				34.647,3.624 			"/>
			<circle fill="#898989" cx="29.438" cy="12.048" r="0.734"/>
			<circle fill="#898989" cx="21.153" cy="12.048" r="0.734"/>
		</g>
		<polygon points="16.267,10.817 10.917,20.957 6.003,10.817 4.51,10.817 3.453,10.817 3.453,24.067 4.51,24.067 4.51,13.43 
			10.17,24.067 10.389,24.067 10.793,24.067 16.267,13.243 16.267,24.067 18.444,24.067 18.444,10.817 		"/>
		<polygon points="44.694,10.817 39.345,20.957 34.431,10.817 32.938,10.817 31.88,10.817 31.88,24.067 32.938,24.067 32.938,13.43 
			38.599,24.067 38.816,24.067 39.22,24.067 44.694,13.243 44.694,24.067 46.872,24.067 46.872,10.817 		"/>
	</g>
	<g>
		<path fill="#15863B" d="M42.652,28.433c0,0-1.437-2.619-4.466-1.488c0,0,1.027,2.72,2.926,2.412
			C41.112,29.356,42.396,29.125,42.652,28.433z"/>
		<path fill="#15863B" d="M42.994,28.483c0,0,0.463-2.574,4.159-2.455c0,0-0.6,3.729-3.338,2.994
			C43.815,29.022,43.388,28.919,42.994,28.483z"/>
		<path fill="#15863B" d="M42.833,28.614c0,0,0.924,2.857-1.985,2.909C40.848,31.523,42.815,31.592,42.833,28.614z"/>
	</g>
	<g>
		<path fill="#898989" d="M7.241,27.846c0,0.392,0.167,0.602,0.609,0.725c0.913,0.246,1.188,0.558,1.188,1.16
			c0,0.572-0.449,0.986-1.262,0.986c-0.348,0-0.674-0.073-0.941-0.188c-0.102-0.043-0.146-0.124-0.146-0.239
			c0-0.145,0.095-0.181,0.239-0.109c0.29,0.145,0.544,0.203,0.812,0.203c0.449,0,0.682-0.181,0.682-0.652
			c0-0.406-0.174-0.638-0.659-0.776c-0.834-0.239-1.139-0.572-1.139-1.065c0-0.572,0.428-0.985,1.226-0.985
			c0.312,0,0.63,0.058,0.92,0.159c0.109,0.036,0.16,0.116,0.16,0.232c0,0.13-0.116,0.16-0.298,0.087
			c-0.268-0.101-0.507-0.145-0.746-0.145C7.459,27.237,7.241,27.404,7.241,27.846z"/>
		<path fill="#898989" d="M10.697,26.976H10.9c0.123,0,0.195,0.058,0.232,0.174l0.775,2.675l0.862-2.682
			c0.036-0.116,0.108-0.167,0.225-0.167h0.174c0.152,0,0.218,0.087,0.167,0.232l-1.652,4.863c-0.044,0.116-0.116,0.167-0.232,0.167
			h-0.174c-0.152,0-0.21-0.094-0.159-0.232l0.479-1.334l-1.065-3.464C10.487,27.063,10.553,26.976,10.697,26.976z"/>
		<path fill="#898989" d="M15.45,27.846c0,0.392,0.167,0.602,0.609,0.725c0.913,0.246,1.188,0.558,1.188,1.16
			c0,0.572-0.449,0.986-1.262,0.986c-0.348,0-0.674-0.073-0.941-0.188c-0.102-0.043-0.146-0.124-0.146-0.239
			c0-0.145,0.095-0.181,0.239-0.109c0.29,0.145,0.544,0.203,0.812,0.203c0.449,0,0.682-0.181,0.682-0.652
			c0-0.406-0.174-0.638-0.659-0.776c-0.834-0.239-1.139-0.572-1.139-1.065c0-0.572,0.428-0.985,1.226-0.985
			c0.312,0,0.63,0.058,0.92,0.159c0.109,0.036,0.16,0.116,0.16,0.232c0,0.13-0.116,0.16-0.298,0.087
			c-0.268-0.101-0.507-0.145-0.746-0.145C15.668,27.237,15.45,27.404,15.45,27.846z"/>
		<path fill="#898989" d="M19.566,25.744h0.202c0.131,0,0.203,0.072,0.203,0.203v1.174h0.928c0.131,0,0.203,0.072,0.203,0.203
			c0,0.087-0.072,0.13-0.203,0.13h-0.928v2.029c0,0.747,0.123,0.899,0.472,0.899c0.115,0,0.225-0.015,0.341-0.058
			c0.145-0.043,0.231,0.007,0.231,0.16c0,0.087-0.051,0.145-0.167,0.174c-0.152,0.036-0.318,0.058-0.478,0.058
			c-0.783,0-1.008-0.29-1.008-1.182v-2.08h-0.472c-0.13,0-0.202-0.073-0.202-0.203c0-0.087,0.072-0.13,0.202-0.13h0.472v-1.174
			C19.363,25.816,19.436,25.744,19.566,25.744z"/>
		<path fill="#898989" d="M24.232,30.397c0.217,0,0.441-0.051,0.725-0.174c0.145-0.072,0.239-0.015,0.239,0.145
			c0,0.102-0.051,0.167-0.16,0.203c-0.275,0.094-0.572,0.145-0.848,0.145c-1.044,0-1.573-0.667-1.573-1.906
			c0-1.276,0.529-1.906,1.45-1.906c0.906,0,1.333,0.645,1.333,1.855c0,0.014,0,0.036-0.007,0.072c0,0.043-0.065,0.073-0.195,0.073
			h-1.965C23.246,29.933,23.594,30.397,24.232,30.397z M24.065,27.223c-0.508,0-0.798,0.42-0.834,1.355h1.565
			C24.797,27.65,24.521,27.223,24.065,27.223z"/>
		<path fill="#898989" d="M27.115,30.44v-3.261c0-0.13,0.073-0.203,0.203-0.203h0.196c0.13,0,0.202,0.073,0.21,0.203v0.108
			c0.188-0.232,0.456-0.384,0.746-0.384c0.392,0,0.646,0.174,0.783,0.507c0.203-0.312,0.507-0.507,0.862-0.507
			c0.71,0,0.985,0.413,0.985,1.399v2.138c0,0.131-0.072,0.203-0.202,0.203h-0.203c-0.131,0-0.203-0.072-0.203-0.203v-1.993
			c0-0.935-0.159-1.21-0.5-1.21c-0.218,0-0.58,0.464-0.58,0.928v2.275c0,0.131-0.072,0.203-0.203,0.203h-0.195
			c-0.131,0-0.203-0.072-0.203-0.203v-1.993c0-0.935-0.167-1.21-0.5-1.21c-0.218,0-0.58,0.457-0.58,0.928v2.275
			c0,0.131-0.072,0.203-0.203,0.203h-0.21C27.188,30.644,27.115,30.571,27.115,30.44z"/>
		<path fill="#898989" d="M33.434,27.846c0,0.392,0.167,0.602,0.609,0.725c0.913,0.246,1.188,0.558,1.188,1.16
			c0,0.572-0.449,0.986-1.262,0.986c-0.348,0-0.674-0.073-0.941-0.188c-0.102-0.043-0.146-0.124-0.146-0.239
			c0-0.145,0.095-0.181,0.239-0.109c0.29,0.145,0.544,0.203,0.812,0.203c0.449,0,0.682-0.181,0.682-0.652
			c0-0.406-0.174-0.638-0.659-0.776c-0.834-0.239-1.139-0.572-1.139-1.065c0-0.572,0.428-0.985,1.226-0.985
			c0.312,0,0.63,0.058,0.92,0.159c0.109,0.036,0.16,0.116,0.16,0.232c0,0.13-0.116,0.16-0.298,0.087
			c-0.268-0.101-0.507-0.145-0.746-0.145C33.651,27.237,33.434,27.404,33.434,27.846z"/>
	</g>
</g>
<g>
	<rect x="53.74" y="9.828" fill="none" width="161.395" height="26.98"/>
	<path fill="#1E95D4" d="M62.299,12.978v-1.765h2.003v1.765h2.83v1.989h-2.83v1.331h3.054v2.003h-2.479
		c1.022,1.807,2.144,2.605,2.731,2.998l-0.826,2.367c-1.093-0.854-1.905-2.003-2.479-3.25v4.048h-2.003v-4.371
		c-0.63,1.359-1.541,2.578-2.647,3.6l-1.232-1.975c1.61-1.037,2.451-2.213,3.138-3.418h-2.451c0.308,0.392,0.434,0.519,0.63,0.7
		l-1.204,1.597c-0.589-1.106-0.659-1.387-0.799-1.961v5.827H55.8v-5.295c-0.477,1.611-0.995,2.409-1.317,2.885l-0.658-2.759
		c0.826-1.037,1.205-1.849,1.821-3.838h-1.555v-1.933H55.8v-2.312h1.933v2.312h1.331v0.854c0.672-1.303,0.84-2.479,0.896-2.914
		l1.877,0.182c-0.057,0.35-0.126,0.7-0.267,1.331H62.299z M60.1,16.298l-1.148-0.84h-1.219v0.616
		c0.266,0.644,0.757,1.415,1.331,2.171v-1.947H60.1z M62.299,16.298v-1.331h-1.331c-0.28,0.673-0.574,1.149-0.7,1.331H62.299z"/>
	<path fill="#1E95D4" d="M68.417,21.971c0.084-0.014,2.354-0.168,2.605-0.196v-3.362h-2.228v-2.031h6.556v2.031h-2.186v3.193
		c1.569-0.168,2.199-0.28,2.676-0.364l0.028,1.989c-1.583,0.322-2.256,0.392-7.229,0.938L68.417,21.971z M80.421,13.132h1.331v2.031
		h-3.908c0.084,1.345,0.238,3.852,1.037,5.687c0.084,0.21,0.392,0.938,0.742,0.938c0.378,0,1.135-0.966,1.471-1.905l0.883,2.227
		c-0.225,0.63-0.925,2.381-2.312,2.381c-0.645,0-1.316-0.364-1.695-0.784c-2.031-2.213-2.185-6.248-2.269-8.545h-7.172v-2.031h7.102
		c-0.014-0.224-0.07-1.849-0.07-1.947h2.241v1.947h1.373c-0.364-0.532-0.645-0.952-1.022-1.303l1.807-0.728
		c0.21,0.154,0.393,0.28,1.345,1.639L80.421,13.132z"/>
	<path fill="#1E95D4" d="M85.859,15.835c-1.106,0.672-1.61,0.882-2.129,1.079l-1.064-2.129c3.418-1.345,4.875-2.521,5.701-3.684
		h2.493c0.603,0.714,2.031,2.297,5.631,3.656l-1.092,2.115c-0.421-0.182-1.093-0.476-2.088-1.079v0.854h-7.452V15.835z
		 M93.914,24.604c-0.14-0.267-0.294-0.561-0.561-0.981c-2.381,0.336-7.144,0.533-9.665,0.603l-0.336-2.171
		c0.07,0.014,1.849,0.014,2.045,0.014c0.112-0.224,0.574-1.163,0.98-2.423h-3.124v-2.017H95.89v2.017h-2.9
		c0.631,0.687,1.569,1.709,2.942,3.908L93.914,24.604z M91.785,14.771c-1.219-0.911-1.821-1.583-2.186-1.975
		c-0.336,0.434-0.882,1.022-2.157,1.975H91.785z M92.653,19.646h-3.936c-0.505,1.177-0.673,1.541-1.107,2.423
		c1.653-0.014,3.166-0.014,4.566-0.154c-0.588-0.785-0.896-1.149-1.176-1.485L92.653,19.646z"/>
	<path fill="#1E95D4" d="M97.125,22.489c0.546-1.247,0.645-2.62,0.645-5.575h1.316c-0.028,3.39-0.112,5.309-0.7,6.794L97.125,22.489
		z M103.33,14.252v1.919h-2.045v8.278h-1.737v-8.278h-2.115v-1.919H103.33z M102.854,11.591v1.877h-4.973v-1.877H102.854z
		 M105.936,21.957v-5.183h-2.241v-2.101h2.241v-3.474h2.171v3.474h2.241v2.101h-2.241v5.183h2.508v2.101h-7.872v-1.709h-1.009
		v-5.435h1.415v5.043H105.936z"/>
	<path fill="#1E95D4" d="M124.256,23.894h-2.906v-7.711l-2.117,4.977h-1.992l-2.117-4.977v7.711h-2.75V12.261h3.367l2.578,5.742
		l2.57-5.742h3.367V23.894z"/>
	<path fill="#1E95D4" d="M128.788,23.894V14.48h-3.438v-2.219h9.797v2.219h-3.438v9.414H128.788z"/>
	<path fill="#1E95D4" d="M148.124,23.894h-2.906v-7.711l-2.117,4.977h-1.992l-2.117-4.977v7.711h-2.75V12.261h3.367l2.578,5.742
		l2.57-5.742h3.367V23.894z"/>
	<path fill="#1E95D4" d="M153.539,18.777c-1.204-0.673-2.646-1.233-4.132-1.639l0.784-1.877c1.064,0.224,2.857,0.771,4.202,1.513
		L153.539,18.777z M150.149,21.438c4.511-0.392,7.551-1.316,9.413-7.592l2.102,1.008c-2.213,6.612-5.631,8.362-10.898,8.993
		L150.149,21.438z M154.772,15.401c-0.603-0.308-1.751-0.896-4.286-1.541l0.798-1.863c1.345,0.252,3.025,0.756,4.37,1.415
		L154.772,15.401z"/>
	<path fill="#1E95D4" d="M161.542,22.083c3.151-1.261,6.135-3.81,7.634-7.676h-6.794v-2.115h9.777
		c-0.14,0.84-0.56,3.166-2.535,5.967c1.639,1.19,3.18,2.507,4.595,3.936l-1.891,1.849c-1.261-1.457-3.194-3.362-4.063-4.09
		c-2.521,2.746-4.482,3.6-5.449,4.006L161.542,22.083z"/>
	<path fill="#1E95D4" d="M186.413,15.597v2.073h-4.412l-0.015,0.224c-0.224,3.488-1.849,5.337-6.065,6.135l-0.91-1.975
		c3.208-0.49,4.511-1.513,4.665-4.146l0.014-0.238h-5.127v-2.073H186.413z M185.292,12.04v2.073h-9.608V12.04H185.292z"/>
	<path fill="#1E95D4" d="M194.753,16.62c2.031,2.633,3.151,5.561,3.474,6.401l-2.255,0.98c-0.196-0.532-0.295-0.798-0.448-1.177
		c-2.367,0.322-8.531,0.63-9.512,0.687l-0.266-2.325c0.224,0,1.078,0,1.372-0.014c1.947-6.303,2.018-6.542,2.592-9.427l2.465,0.238
		c-1.877,6.317-2.087,7.018-2.871,9.161c1.373-0.014,1.779-0.028,5.407-0.182c-0.911-1.961-1.527-2.872-1.919-3.432L194.753,16.62z"
		/>
	<path fill="#1E95D4" d="M209.281,24.002c-0.603-0.714-1.934-2.283-4.021-4.09c-1.345,1.555-2.913,2.928-5.393,4.048l-1.303-1.919
		c1.751-0.603,3.277-1.667,4.595-2.942c1.849-1.807,2.493-3.516,2.871-4.594h-6.64v-2.129h8.362
		c0.141,0.687,0.225,1.317,0.252,1.723l0.491-0.07c-0.393,1.905-1.724,3.853-1.934,4.161c2.479,1.863,3.922,3.32,4.553,3.95
		L209.281,24.002z M208.44,13.65c-0.168-1.121-0.196-1.303-0.448-2.227l1.247-0.14c0.21,0.658,0.392,1.541,0.49,2.143L208.44,13.65z
		 M210.416,13.412c-0.028-0.224-0.183-1.274-0.463-2.157l1.233-0.154c0.168,0.532,0.363,1.358,0.476,2.115L210.416,13.412z"/>
</g>
<g>
</g>
<g>
</g>
<g>
</g>
<g>
</g>
<g>
</g>
<g>
</g>
</svg>
